# xmcd
#
# Track frame offsets:
#	150
#	12634
#	25767
#	38221
#	47365
#	60775
#	71716
#	86121
#	97620
#	108815
#	121232
#	134387
#	147794
#	159242
#
# Disc length: 2285 seconds
#
# Revision: 0
# Processed by: cddbd v1.5.2PL0 Copyright (c) Steve Scherf et al.
# Submitted via: EasyCDDAExtractor 11.5.3.1
#
DISCID=a608eb0e
DTITLE=Sonny Boy Williamson - Bring It On Home
DYEAR=1972
DGENRE=Blues
TTITLE0=One Way Out
TTITLE1=Too Young to Die
TTITLE2=Trust Me, Baby
TTITLE3=Checkin' Up On My Baby
TTITLE4=Sad To Be Alone
TTITLE5=Got To Move
TTITLE6=Help Me
TTITLE7=Bring It On Home
TTITLE8=Down Child
TTITLE9=Down Child
TTITLE10=All My Love In Vain
TTITLE11=Wake Up, Baby
TTITLE12=Your Funeral And My Trial
TTITLE13=The Goat
EXTD=
EXTT0=
EXTT1=
EXTT2=
EXTT3=
EXTT4=
EXTT5=
EXTT6=
EXTT7=
EXTT8=
EXTT9=
EXTT10=
EXTT11=
EXTT12=
EXTT13=
PLAYORDER=
